{
  "accessors": [
    {
      "bufferView": 2,
      "componentType": 5126,
      "count": 1168,
      "max": [
        12.570370674133301,
        30.390045166015625,
        8.4130887985229492
      ],
      "min": [
        -2.6676125526428223,
        -1,
        -2.8016531467437744
      ],
      "type": "VEC3"
    },
    {
      "bufferView": 2,
      "byteOffset": 14016,
      "componentType": 5126,
      "count": 1168,
      "max": [
        0.99995231628417969,
        0.99506258964538574,
        0.99620741605758667
      ],
      "min": [
        -0.99943256378173828,
        -0.9968641996383667,
        -0.99955809116363525
      ],
      "type": "VEC3"
    },
    {
      "bufferView": 1,
      "componentType": 5126,
      "count": 1168,
      "max": [
        0.9555213451385498,
        0.88205039501190186
      ],
      "min": [
        0.35237190127372742,
        0.17316856980323792
      ],
      "type": "VEC2"
    },
    {
      "bufferView": 0,
      "componentType": 5125,
      "count": 1752,
      "max": [
        1167
      ],
      "min": [
        0
      ],
      "type": "SCALAR"
    },
    {
      "bufferView": 2,
      "byteOffset": 28032,
      "componentType": 5126,
      "count": 1168,
      "max": [
        12.570370674133301,
        30.390045166015625,
        8.4130887985229492
      ],
      "min": [
        -2.6676125526428223,
        -1,
        -2.8016531467437744
      ],
      "type": "VEC3"
    },
    {
      "bufferView": 2,
      "byteOffset": 42048,
      "componentType": 5126,
      "count": 1168,
      "max": [
        0.99995231628417969,
        0.99506258964538574,
        1
      ],
      "min": [
        -0.99943256378173828,
        -0.9968641996383667,
        -1
      ],
      "type": "VEC3"
    },
    {
      "bufferView": 1,
      "byteOffset": 9344,
      "componentType": 5126,
      "count": 1168,
      "max": [
        0.95527535676956177,
        0.88185632228851318
      ],
      "min": [
        0.35220438241958618,
        0.17497155070304871
      ],
      "type": "VEC2"
    },
    {
      "bufferView": 0,
      "byteOffset": 7008,
      "componentType": 5125,
      "count": 1752,
      "max": [
        1167
      ],
      "min": [
        0
      ],
      "type": "SCALAR"
    }
  ],
  "asset": {
    "extras": {
      "author": "JonathanFreire (https://sketchfab.com/JonathanFreire)",
      "license": "CC-BY-4.0 (http://creativecommons.org/licenses/by/4.0/)",
      "source": "https://sketchfab.com/3d-models/coral-3f051742aa3b466fa3b8df9bb990d170",
      "title": "coral"
    },
    "generator": "Sketchfab-9.0.0",
    "version": "2.0"
  },
  "bufferViews": [
    {
      "buffer": 0,
      "byteLength": 14016,
      "byteOffset": 0,
      "name": "floatBufferViews",
      "target": 34963
    },
    {
      "buffer": 0,
      "byteLength": 18688,
      "byteOffset": 14016,
      "byteStride": 8,
      "name": "floatBufferViews",
      "target": 34962
    },
    {
      "buffer": 0,
      "byteLength": 56064,
      "byteOffset": 32704,
      "byteStride": 12,
      "name": "floatBufferViews",
      "target": 34962
    }
  ],
  "buffers": [
    {
      "byteLength": 88768,
      "uri": "scene.bin"
    }
  ],
  "images": [
    {
      "uri": "textures/Material.002_baseColor.jpeg"
    }
  ],
  "materials": [
    {
      "doubleSided": true,
      "emissiveFactor": [
        0,
        0,
        0
      ],
      "name": "Material.002",
      "pbrMetallicRoughness": {
        "baseColorFactor": [
          1,
          1,
          1,
          1
        ],
        "baseColorTexture": {
          "index": 0,
          "texCoord": 0
        },
        "metallicFactor": 0,
        "roughnessFactor": 1
      }
    }
  ],
  "meshes": [
    {
      "primitives": [
        {
          "attributes": {
            "NORMAL": 1,
            "POSITION": 0,
            "TEXCOORD_0": 2
          },
          "indices": 3,
          "material": 0,
          "mode": 4
        }
      ]
    },
    {
      "primitives": [
        {
          "attributes": {
            "NORMAL": 5,
            "POSITION": 4,
            "TEXCOORD_0": 6
          },
          "indices": 7,
          "material": 0,
          "mode": 4
        }
      ]
    }
  ],
  "nodes": [
    {
      "children": [
        1
      ],
      "name": "RootNode (gltf orientation matrix)",
      "rotation": [
        -0.70710678118654746,
        -0,
        -0,
        0.70710678118654757
      ]
    },
    {
      "children": [
        2
      ],
      "name": "RootNode (model correction matrix)"
    },
    {
      "children": [
        3
      ],
      "name": "root"
    },
    {
      "children": [
        4,
        6
      ],
      "matrix": [
        1,
        0,
        0,
        0,
        0,
        2.2204460492503131e-16,
        1,
        0,
        0,
        -1,
        2.2204460492503131e-16,
        0,
        0,
        0,
        0,
        1
      ],
      "name": "GLTF_SceneRootNode"
    },
    {
      "children": [
        5
      ],
      "matrix": [
        -0.29735348674079409,
        0,
        0.026015098688167985,
        0,
        0,
        0.29848933219909668,
        0,
        0,
        -0.026015098688167985,
        0,
        -0.29735348674079409,
        0,
        0.075605392456054688,
        0.29925912618637085,
        0.059381626546382904,
        1
      ],
      "name": "Cube.044_0"
    },
    {
      "mesh": 0,
      "name": ""
    },
    {
      "children": [
        7
      ],
      "matrix": [
        0.29848933219909668,
        0,
        0,
        0,
        0,
        0.29848933219909668,
        0,
        0,
        0,
        0,
        0.29848933219909668,
        0,
        0.075605392456054688,
        0.29925912618637085,
        0.059381626546382904,
        1
      ],
      "name": "Cube.046_1"
    },
    {
      "mesh": 1,
      "name": ""
    }
  ],
  "samplers": [
    {
      "magFilter": 9729,
      "minFilter": 9987,
      "wrapS": 10497,
      "wrapT": 10497
    }
  ],
  "scene": 0,
  "scenes": [
    {
      "name": "OSG_Scene",
      "nodes": [
        0
      ]
    }
  ],
  "textures": [
    {
      "sampler": 0,
      "source": 0
    }
  ]
}

